<svg width="177" height="87" viewBox="0 0 177 87" fill="none" xmlns="http://www.w3.org/2000/svg">
<g transform="translate(88.5,43.5) scale(2) translate(-136.95,-20.77)">
<path d="M165.515 2.76254C162.888 1.48613 159.938 0.770203 156.82 0.770203C153.703 0.770203 150.753 1.48613 148.126 2.76254H165.515Z" fill="url(#paint0_linear_5130_718)"></path>
<path d="M146.006 3.95794C146.217 3.8212 146.431 3.68834 146.647 3.55947H166.993C168.15 4.24774 169.231 5.04983 170.221 5.95028H143.42C143.568 5.81523 143.719 5.68239 143.871 5.55181H123.948C124.044 5.46917 124.142 5.38743 124.24 5.30661H104.615C104.96 5.02954 105.314 4.76371 105.678 4.50968H125.274C125.539 4.31937 125.808 4.13538 126.082 3.95794H146.006Z" fill="url(#paint1_linear_5130_718)"></path>
<path d="M173.052 9.13802C172.447 8.28917 171.776 7.48982 171.048 6.74721H142.592C142.464 6.87828 142.337 7.01112 142.212 7.14568H122.289C122.121 7.3265 121.957 7.51045 121.796 7.69742H102.116C101.888 7.95716 101.666 8.22289 101.451 8.49435H121.144C121.081 8.57558 121.019 8.65732 120.957 8.73955H140.88C140.781 8.87112 140.684 9.00395 140.589 9.13802H173.052Z" fill="url(#paint2_linear_5130_718)"></path>
<path d="M139.799 10.3334C139.881 10.1995 139.964 10.0667 140.049 9.93495H173.592C174.082 10.6978 174.522 11.4963 174.907 12.3258H138.734C138.796 12.1921 138.859 12.0593 138.924 11.9273H119.001C119.041 11.8452 119.082 11.7635 119.123 11.6821H99.389C99.5288 11.4128 99.6745 11.1471 99.826 10.8852H119.551C119.657 10.6994 119.765 10.5154 119.876 10.3334H139.799Z" fill="url(#paint3_linear_5130_718)"></path>
<path d="M176.064 15.5135C175.844 14.6945 175.573 13.8964 175.255 13.1227H138.386C138.332 13.2548 138.279 13.3876 138.227 13.5212H118.304C118.233 13.7038 118.165 13.8877 118.1 14.0729H98.3418C98.2467 14.336 98.157 14.6017 98.0727 14.8698H117.838C117.813 14.9513 117.789 15.0331 117.765 15.115H137.688C137.65 15.2473 137.613 15.3801 137.577 15.5135H176.064Z" fill="url(#paint4_linear_5130_718)"></path>
<path d="M137.295 16.7089C137.323 16.5756 137.351 16.4428 137.381 16.3104H176.26C176.435 17.091 176.565 17.889 176.645 18.7012H136.995C137.009 18.568 137.023 18.4352 137.039 18.3028H117.116C117.125 18.2209 117.136 18.1391 117.146 18.0576H97.3543C97.3918 17.7902 97.4346 17.5245 97.4825 17.2606H117.268C117.3 17.0758 117.335 16.8919 117.372 16.7089H137.295Z" fill="url(#paint5_linear_5130_718)"></path>
<path d="M176.744 20.6936C176.744 21.0949 176.732 21.4935 176.708 21.889H136.932C136.924 21.7565 136.918 21.6237 136.913 21.4905H116.989C116.986 21.4089 116.983 21.3272 116.981 21.2453H97.1645C97.162 21.1128 97.1606 20.98 97.1606 20.8468C97.1606 20.7137 97.162 20.5809 97.1645 20.4484H116.975C116.977 20.2638 116.982 20.0799 116.989 19.8966H136.913C136.918 19.7635 136.924 19.6306 136.932 19.4982H176.708C176.732 19.8936 176.744 20.2922 176.744 20.6936Z" fill="url(#paint6_linear_5130_718)"></path>
<path d="M176.645 22.6859C176.565 23.4982 176.435 24.2961 176.26 25.0767H137.381C137.351 24.9444 137.323 24.8116 137.295 24.6782H117.372C117.356 24.5967 117.34 24.515 117.324 24.433H97.4825C97.4346 24.1692 97.3918 23.9035 97.3543 23.6361H117.189C117.162 23.453 117.138 23.2691 117.116 23.0844H137.039C137.023 22.9519 137.009 22.8191 136.995 22.6859H176.645Z" fill="url(#paint7_linear_5130_718)"></path>
<path d="M138.227 27.866C138.279 27.9995 138.332 28.1323 138.386 28.2644H175.255C175.573 27.4907 175.844 26.6926 176.064 25.8736H137.577C137.613 26.007 137.65 26.1399 137.688 26.2721H117.765C117.819 26.4572 117.875 26.6411 117.935 26.8238H98.0727C98.157 27.092 98.2467 27.3577 98.3418 27.6208H118.211C118.241 27.7028 118.272 27.7845 118.304 27.866H138.227Z" fill="url(#paint8_linear_5130_718)"></path>
<path d="M170.221 35.4369C169.231 36.3373 168.15 37.1394 166.993 37.8277H146.647C146.431 37.6988 146.217 37.5659 146.006 37.4292H126.082C125.958 37.3488 125.835 37.2671 125.713 37.184H105.678C105.314 36.93 104.96 36.6641 104.615 36.3871H124.621C124.393 36.208 124.168 36.024 123.948 35.8353H143.871C143.719 35.7048 143.568 35.5719 143.42 35.4369H170.221Z" fill="url(#paint11_linear_5130_718)"></path>
<path d="M148.126 38.6246C150.753 39.901 153.703 40.6169 156.82 40.6169C159.938 40.6169 162.888 39.901 165.515 38.6246H148.126Z" fill="url(#paint12_linear_5130_718)"></path>
<path d="M123.897 2.11887C121.772 1.34538 119.477 0.923471 117.084 0.923471C114.691 0.923471 112.396 1.34538 110.271 2.11887H123.897Z" fill="url(#paint13_linear_5130_718)"></path>
<path d="M110.271 39.5748C112.396 40.3483 114.691 40.7702 117.084 40.7702C119.477 40.7702 121.772 40.3483 123.897 39.5748H110.271Z" fill="url(#paint14_linear_5130_718)"></path>
<path d="M136.897 0.770203C139.673 0.770203 142.317 1.3381 144.718 2.36407H129.076C131.477 1.3381 134.121 0.770203 136.897 0.770203Z" fill="url(#paint15_linear_5130_718)"></path>
<path d="M136.897 40.6169C134.121 40.6169 131.477 40.049 129.076 39.0231H144.718C142.317 40.049 139.673 40.6169 136.897 40.6169Z" fill="url(#paint16_linear_5130_718)"></path>
</g>
<defs>
<linearGradient id="paint0_linear_5130_718" x1="97.1606" y1="18.3432" x2="174.641" y2="18.3432" gradientUnits="userSpaceOnUse">
<stop stop-color="#0046F9"></stop>
<stop offset="0.197917" stop-color="#16DBF6"></stop>
<stop offset="0.401042" stop-color="#FFE713"></stop>
<stop offset="0.604167" stop-color="#FF7917"></stop>
<stop offset="0.802083" stop-color="#FB0000"></stop>
<stop offset="1" stop-color="#B30000"></stop>
</linearGradient>
<linearGradient id="paint1_linear_5130_718" x1="97.1606" y1="18.3432" x2="174.641" y2="18.3432" gradientUnits="userSpaceOnUse">
<stop stop-color="#0046F9"></stop>
<stop offset="0.197917" stop-color="#16DBF6"></stop>
<stop offset="0.401042" stop-color="#FFE713"></stop>
<stop offset="0.604167" stop-color="#FF7917"></stop>
<stop offset="0.802083" stop-color="#FB0000"></stop>
<stop offset="1" stop-color="#B30000"></stop>
</linearGradient>
<linearGradient id="paint2_linear_5130_718" x1="97.1606" y1="18.3432" x2="174.641" y2="18.3432" gradientUnits="userSpaceOnUse">
<stop stop-color="#0046F9"></stop>
<stop offset="0.197917" stop-color="#16DBF6"></stop>
<stop offset="0.401042" stop-color="#FFE713"></stop>
<stop offset="0.604167" stop-color="#FF7917"></stop>
<stop offset="0.802083" stop-color="#FB0000"></stop>
<stop offset="1" stop-color="#B30000"></stop>
</linearGradient>
<linearGradient id="paint3_linear_5130_718" x1="97.1606" y1="18.3432" x2="174.641" y2="18.3432" gradientUnits="userSpaceOnUse">
<stop stop-color="#0046F9"></stop>
<stop offset="0.197917" stop-color="#16DBF6"></stop>
<stop offset="0.401042" stop-color="#FFE713"></stop>
<stop offset="0.604167" stop-color="#FF7917"></stop>
<stop offset="0.802083" stop-color="#FB0000"></stop>
<stop offset="1" stop-color="#B30000"></stop>
</linearGradient>
<linearGradient id="paint4_linear_5130_718" x1="97.1606" y1="18.3432" x2="174.641" y2="18.3432" gradientUnits="userSpaceOnUse">
<stop stop-color="#0046F9"></stop>
<stop offset="0.197917" stop-color="#16DBF6"></stop>
<stop offset="0.401042" stop-color="#FFE713"></stop>
<stop offset="0.604167" stop-color="#FF7917"></stop>
<stop offset="0.802083" stop-color="#FB0000"></stop>
<stop offset="1" stop-color="#B30000"></stop>
</linearGradient>
<linearGradient id="paint5_linear_5130_718" x1="97.1606" y1="18.3432" x2="174.641" y2="18.3432" gradientUnits="userSpaceOnUse">
<stop stop-color="#0046F9"></stop>
<stop offset="0.197917" stop-color="#16DBF6"></stop>
<stop offset="0.401042" stop-color="#FFE713"></stop>
<stop offset="0.604167" stop-color="#FF7917"></stop>
<stop offset="0.802083" stop-color="#FB0000"></stop>
<stop offset="1" stop-color="#B30000"></stop>
</linearGradient>
<linearGradient id="paint6_linear_5130_718" x1="97.1606" y1="18.3432" x2="174.641" y2="18.3432" gradientUnits="userSpaceOnUse">
<stop stop-color="#0046F9"></stop>
<stop offset="0.197917" stop-color="#16DBF6"></stop>
<stop offset="0.401042" stop-color="#FFE713"></stop>
<stop offset="0.604167" stop-color="#FF7917"></stop>
<stop offset="0.802083" stop-color="#FB0000"></stop>
<stop offset="1" stop-color="#B30000"></stop>
</linearGradient>
<linearGradient id="paint7_linear_5130_718" x1="97.1606" y1="18.3432" x2="174.641" y2="18.3432" gradientUnits="userSpaceOnUse">
<stop stop-color="#0046F9"></stop>
<stop offset="0.197917" stop-color="#16DBF6"></stop>
<stop offset="0.401042" stop-color="#FFE713"></stop>
<stop offset="0.604167" stop-color="#FF7917"></stop>
<stop offset="0.802083" stop-color="#FB0000"></stop>
<stop offset="1" stop-color="#B30000"></stop>
</linearGradient>
<linearGradient id="paint8_linear_5130_718" x1="97.1606" y1="18.3432" x2="174.641" y2="18.3432" gradientUnits="userSpaceOnUse">
<stop stop-color="#0046F9"></stop>
<stop offset="0.197917" stop-color="#16DBF6"></stop>
<stop offset="0.401042" stop-color="#FFE713"></stop>
<stop offset="0.604167" stop-color="#FF7917"></stop>
<stop offset="0.802083" stop-color="#FB0000"></stop>
<stop offset="1" stop-color="#B30000"></stop>
</linearGradient>
<linearGradient id="paint9_linear_5130_718" x1="97.1606" y1="18.3432" x2="174.641" y2="18.3432" gradientUnits="userSpaceOnUse">
<stop stop-color="#0046F9"></stop>
<stop offset="0.197917" stop-color="#16DBF6"></stop>
<stop offset="0.401042" stop-color="#FFE713"></stop>
<stop offset="0.604167" stop-color="#FF7917"></stop>
<stop offset="0.802083" stop-color="#FB0000"></stop>
<stop offset="1" stop-color="#B30000"></stop>
</linearGradient>
<linearGradient id="paint10_linear_5130_718" x1="97.1606" y1="18.3432" x2="174.641" y2="18.3432" gradientUnits="userSpaceOnUse">
<stop stop-color="#0046F9"></stop>
<stop offset="0.197917" stop-color="#16DBF6"></stop>
<stop offset="0.401042" stop-color="#FFE713"></stop>
<stop offset="0.604167" stop-color="#FF7917"></stop>
<stop offset="0.802083" stop-color="#FB0000"></stop>
<stop offset="1" stop-color="#B30000"></stop>
</linearGradient>
<linearGradient id="paint11_linear_5130_718" x1="97.1606" y1="18.3432" x2="174.641" y2="18.3432" gradientUnits="userSpaceOnUse">
<stop stop-color="#0046F9"></stop>
<stop offset="0.197917" stop-color="#16DBF6"></stop>
<stop offset="0.401042" stop-color="#FFE713"></stop>
<stop offset="0.604167" stop-color="#FF7917"></stop>
<stop offset="0.802083" stop-color="#FB0000"></stop>
<stop offset="1" stop-color="#B30000"></stop>
</linearGradient>
<linearGradient id="paint12_linear_5130_718" x1="97.1606" y1="18.3432" x2="174.641" y2="18.3432" gradientUnits="userSpaceOnUse">
<stop stop-color="#0046F9"></stop>
<stop offset="0.197917" stop-color="#16DBF6"></stop>
<stop offset="0.401042" stop-color="#FFE713"></stop>
<stop offset="0.604167" stop-color="#FF7917"></stop>
<stop offset="0.802083" stop-color="#FB0000"></stop>
<stop offset="1" stop-color="#B30000"></stop>
</linearGradient>
<linearGradient id="paint13_linear_5130_718" x1="97.1606" y1="18.3432" x2="174.641" y2="18.3432" gradientUnits="userSpaceOnUse">
<stop stop-color="#0046F9"></stop>
<stop offset="0.197917" stop-color="#16DBF6"></stop>
<stop offset="0.401042" stop-color="#FFE713"></stop>
<stop offset="0.604167" stop-color="#FF7917"></stop>
<stop offset="0.802083" stop-color="#FB0000"></stop>
<stop offset="1" stop-color="#B30000"></stop>
</linearGradient>
<linearGradient id="paint14_linear_5130_718" x1="97.1606" y1="18.3432" x2="174.641" y2="18.3432" gradientUnits="userSpaceOnUse">
<stop stop-color="#0046F9"></stop>
<stop offset="0.197917" stop-color="#16DBF6"></stop>
<stop offset="0.401042" stop-color="#FFE713"></stop>
<stop offset="0.604167" stop-color="#FF7917"></stop>
<stop offset="0.802083" stop-color="#FB0000"></stop>
<stop offset="1" stop-color="#B30000"></stop>
</linearGradient>
<linearGradient id="paint15_linear_5130_718" x1="97.1606" y1="18.3432" x2="174.641" y2="18.3432" gradientUnits="userSpaceOnUse">
<stop stop-color="#0046F9"></stop>
<stop offset="0.197917" stop-color="#16DBF6"></stop>
<stop offset="0.401042" stop-color="#FFE713"></stop>
<stop offset="0.604167" stop-color="#FF7917"></stop>
<stop offset="0.802083" stop-color="#FB0000"></stop>
<stop offset="1" stop-color="#B30000"></stop>
</linearGradient>
<linearGradient id="paint16_linear_5130_718" x1="97.1606" y1="18.3432" x2="174.641" y2="18.3432" gradientUnits="userSpaceOnUse">
<stop stop-color="#0046F9"></stop>
<stop offset="0.197917" stop-color="#16DBF6"></stop>
<stop offset="0.401042" stop-color="#FFE713"></stop>
<stop offset="0.604167" stop-color="#FF7917"></stop>
<stop offset="0.802083" stop-color="#FB0000"></stop>
<stop offset="1" stop-color="#B30000"></stop>
</linearGradient>
</defs>
</svg>